<svg xmlns="http://www.w3.org/2000/svg" viewBox="0 0 64 64" width="64" height="64">
  <!-- Background -->
  <rect width="64" height="64" rx="8" fill="#f0f4f8"/>
  
  <!-- Load Balancer representation (top) -->
  <g transform="translate(8, 8) scale(0.8)">
    <rect x="10" y="2" width="40" height="8" rx="2" fill="#4a6fa5"/>
    <rect x="15" y="2" width="4" height="8" fill="#2c4c77"/>
    <rect x="25" y="2" width="4" height="8" fill="#2c4c77"/>
    <rect x="35" y="2" width="4" height="8" fill="#2c4c77"/>
    <rect x="45" y="2" width="4" height="8" fill="#2c4c77"/>
  </g>
  
  <!-- Connecting lines -->
  <path d="M20,18 L20,30 M32,18 L32,30 M44,18 L44,30" stroke="#4a6fa5" stroke-width="2"/>
  
  <!-- Microservices (middle) -->
  <rect x="10" y="30" width="10" height="10" rx="2" fill="#60a5fa"/>
  <rect x="27" y="30" width="10" height="10" rx="2" fill="#60a5fa"/>
  <rect x="44" y="30" width="10" height="10" rx="2" fill="#60a5fa"/>
  
  <!-- Microservice details -->
  <rect x="12" y="33" width="6" height="1" fill="white"/>
  <rect x="12" y="36" width="6" height="1" fill="white"/>
  <rect x="29" y="33" width="6" height="1" fill="white"/>
  <rect x="29" y="36" width="6" height="1" fill="white"/>
  <rect x="46" y="33" width="6" height="1" fill="white"/>
  <rect x="46" y="36" width="6" height="1" fill="white"/>
  
  <!-- WebService API layer (bottom) -->
  <rect x="15" y="46" width="34" height="10" rx="2" fill="#3b82f6"/>
  <path d="M20,46 L20,56 M28,46 L28,56 M36,46 L36,56 M44,46 L44,56" stroke="#2563eb" stroke-width="1"/>
  
  <!-- Connection lines -->
  <path d="M15,40 L15,46 M32,40 L32,46 M49,40 L49,46" stroke="#4a6fa5" stroke-width="2"/>
  
  <!-- API symbol -->
  <text x="32" y="53" font-family="Arial" font-size="7" fill="white" text-anchor="middle">API</text>
  
  <!-- @WSConsumer annotation symbol -->
  <g transform="translate(49, 17)">
    <circle cx="0" cy="0" r="7" fill="#f97316"/>
    <text x="0" y="2" font-family="Arial" font-size="4" fill="white" text-anchor="middle">@WS</text>
  </g>
</svg>